<?xml version="1.0" encoding="UTF-8"?>
<!-- Generator: Adobe Illustrator 24.3.0, SVG Export Plug-In . SVG Version: 6.00 Build 0)  -->
<svg xmlns="http://www.w3.org/2000/svg" xmlns:xlink="http://www.w3.org/1999/xlink" version="1.1" id="Capa_1" x="0px" y="0px" viewBox="0 0 512.013 512.013" style="enable-background:new 0 0 512.013 512.013;" xml:space="preserve" width="512" height="512">
<g>
	<g id="Page-1_42_">
		<g id="present_day_export_42_" transform="translate(-416.000000, -896.000000)">
			<path id="room_x2C_-space_x2C_-dimensions_x2C_-walls_x2C_-interior_x2C_-indoors" d="M416.007,1302.602v-301.177     c0-6.277,3.894-11.896,9.771-14.1l240.941-90.353c3.754-1.408,7.604-1.22,10.931,0.134l240.585,90.219     c5.878,2.204,9.771,7.823,9.771,14.1v301.177c0,6.817-4.414,12.272-10.201,14.261l-240.511,90.192     c-3.409,1.278-7.166,1.278-10.575,0l-240.511-90.192C420.421,1314.874,416.007,1309.418,416.007,1302.602z M837.654,1258.284     l60.235,22.588v-193.717l-210.824-79.059v193.717l45.176,16.941v-136.388c0-10.514,10.502-17.792,20.346-14.1l75.294,28.235     c5.878,2.204,9.771,7.823,9.771,14.1V1258.284z M762.36,1104.096v125.952l45.176,16.941v-125.952L762.36,1104.096z      M473.953,1302.602l198.054,74.27l198.054-74.27l-198.054-74.27L473.953,1302.602z M656.948,1008.096l-210.824,79.059v193.717     l210.824-79.059V1008.096z M687.066,975.931l210.824,79.059v-43.129l-210.824-79.059V975.931z M446.124,1054.99l210.824-79.059     v-43.129l-210.824,79.059V1054.99z M476.242,1204.719v-75.294c0-6.277,3.894-11.896,9.771-14.1l120.471-45.176     c9.845-3.692,20.346,3.586,20.346,14.1v75.294c0,6.277-3.894,11.896-9.771,14.1l-120.471,45.176     C486.744,1222.511,476.242,1215.234,476.242,1204.719z M596.713,1149.107v-43.129l-90.353,33.882v43.129L596.713,1149.107z"/>
		</g>
	</g>
</g>















</svg>
