<?xml version="1.0" encoding="utf-8"?>
<svg xmlns="http://www.w3.org/2000/svg">
<symbol id="badge"><path d="M512 256c0-26.297-23.109-45.64-27.291-61.28-4.395-16.448 5.855-44.566-6.982-66.754-12.979-22.433-42.553-27.565-54.34-39.352-11.784-11.785-16.927-41.367-39.351-54.341-22.205-12.848-50.279-2.576-66.755-6.983C301.601 23.098 282.314 0 256 0c-26.293 0-45.644 23.11-61.281 27.29-16.471 4.402-44.561-5.857-66.753 6.983-13.886 8.033-21.055 22.301-27.38 34.889C90.562 89.108 89.1 90.568 69.162 100.585c-12.588 6.325-26.855 13.495-34.889 27.38-7.923 13.694-7.042 29.527-6.264 43.496 1.267 22.752.584 24.711-11.322 42.795C8.866 226.137 0 239.603 0 256c0 16.398 8.866 29.863 16.688 41.744 11.906 18.085 12.589 20.038 11.322 42.795-.778 13.969-1.66 29.801 6.263 43.495 12.979 22.433 42.554 27.565 54.34 39.352 11.784 11.785 16.927 41.367 39.351 54.341 22.2 12.844 50.274 2.58 66.755 6.983C210.399 488.902 229.686 512 256 512c16.398 0 29.863-8.865 41.743-16.687 18.08-11.906 20.04-12.588 42.796-11.323 13.969.779 29.802 1.661 43.496-6.264 22.436-12.98 27.557-42.544 39.352-54.34 11.783-11.783 41.367-16.927 54.341-39.352 12.846-22.203 2.578-50.273 6.983-66.754C488.898 301.614 512 282.313 512 256m-41.744 25.247c-15.465 23.489-17.863 31.437-16.219 60.96 1.536 27.595.425 29.792-24.668 42.401-25.86 12.994-31.76 18.89-44.76 44.76-12.599 25.071-14.794 26.207-42.402 24.669-29.48-1.636-37.431.727-60.961 16.219-23.709 15.611-26.791 15.606-50.492 0-23.367-15.384-31.216-17.879-60.962-16.219-27.597 1.538-29.794.416-42.4-24.669-4.782-9.517-9.727-19.357-17.564-27.196-15.921-15.918-42.669-21.206-49.587-33.161-6.753-11.672 1.905-37.511-3.967-59.477C50.51 287.976 30 270.332 30 256c0-14.306 20.522-32.019 26.273-53.535 5.871-21.963-2.785-47.805 3.967-59.477 3.545-6.127 12.7-10.727 22.392-15.597 25.86-12.994 31.76-18.89 44.76-44.76 12.593-25.059 14.779-26.203 42.402-24.669 29.444 1.639 37.415-.716 60.961-16.219 23.709-15.611 26.791-15.606 50.492 0 23.442 15.434 31.404 17.869 60.962 16.219 27.594-1.535 29.791-.424 42.4 24.669 12.995 25.861 18.886 31.76 44.759 44.759 25.063 12.596 26.207 14.785 24.669 42.402-1.641 29.448.72 37.423 16.218 60.96 15.613 23.715 15.606 26.791.001 50.495"/><path d="M256 106c-82.71 0-150 67.29-150 150s67.29 150 150 150 150-67.29 150-150-67.29-150-150-150m0 270c-66.168 0-120-53.832-120-120s53.832-120 120-120 120 53.832 120 120-53.832 120-120 120"/><path d="m315.912 216.673-24.658-3.583-11.028-22.345v.001c-9.905-20.073-38.55-20.068-48.452-.001l-11.028 22.345-24.659 3.583c-22.153 3.22-30.994 30.462-14.972 46.081l17.843 17.393-4.212 24.558c-1.751 10.21 2.367 20.335 10.748 26.424 4.736 3.44 10.276 5.188 15.854 5.188 8.361 0 11.168-2.381 34.652-14.728l22.055 11.595c19.811 10.42 42.982-6.425 39.199-28.479l-4.212-24.558 17.843-17.393c16.029-15.626 7.172-42.862-14.973-46.081m-24.936 43.087a27.01 27.01 0 0 0-7.768 23.912l3.456 20.145c-18.613-9.784-22.185-12.614-30.663-12.614-8.495 0-11.883 2.74-30.664 12.614l3.456-20.146a27.01 27.01 0 0 0-7.77-23.912l-14.637-14.268 20.227-2.938a27.01 27.01 0 0 0 20.342-14.779l9.045-18.33 9.045 18.327a27 27 0 0 0 20.342 14.78l20.228 2.939z"/>
</symbol>
<symbol id="key" viewBox="0 0 512 512"><path d="M334.974 0c-95.419 0-173.049 77.63-173.049 173.049 0 21.213 3.769 41.827 11.211 61.403L7.672 399.928a12.61 12.61 0 0 0-3.694 8.917v90.544c0 6.965 5.646 12.611 12.611 12.611h74.616a12.6 12.6 0 0 0 8.91-3.686l25.145-25.107a12.6 12.6 0 0 0 3.701-8.925v-30.876h30.837c6.965 0 12.611-5.646 12.611-12.611v-12.36h12.361c6.964 0 12.611-5.646 12.611-12.611v-27.136h27.136c3.344 0 6.551-1.329 8.917-3.694l40.121-40.121c19.579 7.449 40.196 11.223 61.417 11.223 95.419 0 173.049-77.63 173.049-173.049C508.022 77.63 430.393 0 334.974 0m0 320.874c-20.642 0-40.606-4.169-59.339-12.393-4.844-2.126-10.299-.956-13.871 2.525-.039.037-.077.067-.115.106l-42.354 42.354h-34.523c-6.965 0-12.611 5.646-12.611 12.611v27.136H159.8c-6.964 0-12.611 5.646-12.611 12.611v12.36h-30.838c-6.964 0-12.611 5.646-12.611 12.611v38.257l-17.753 17.725H29.202v-17.821l154.141-154.14c4.433-4.433 4.433-11.619 0-16.051s-11.617-4.434-16.053 0L29.202 436.854V414.07l167.696-167.708c.038-.038.067-.073.102-.11 3.482-3.569 4.656-9.024 2.53-13.872-8.216-18.732-12.38-38.695-12.38-59.33 0-81.512 66.315-147.827 147.827-147.827S482.802 91.537 482.802 173.05c-.002 81.51-66.318 147.824-147.828 147.824"/><path d="M387.638 73.144c-26.047 0-47.237 21.19-47.237 47.237s21.19 47.237 47.237 47.237 47.237-21.19 47.237-47.237-21.189-47.237-47.237-47.237m0 69.252c-12.139 0-22.015-9.876-22.015-22.015s9.876-22.015 22.015-22.015 22.015 9.876 22.015 22.015-9.876 22.015-22.015 22.015"/>
</symbol>
<symbol id="location" viewBox="0 0 512 512"><path d="M256 0C156.748 0 76 80.748 76 180c0 33.534 9.289 66.26 26.869 94.652l142.885 230.257A15 15 0 0 0 258.499 512h.119a15 15 0 0 0 12.75-7.292L410.611 272.22C427.221 244.428 436 212.539 436 180 436 80.748 355.252 0 256 0m128.866 256.818L258.272 468.186l-129.905-209.34C113.734 235.214 105.8 207.95 105.8 180c0-82.71 67.49-150.2 150.2-150.2S406.1 97.29 406.1 180c0 27.121-7.411 53.688-21.234 76.818"/><path d="M256 90c-49.626 0-90 40.374-90 90 0 49.309 39.717 90 90 90 50.903 0 90-41.233 90-90 0-49.626-40.374-90-90-90m0 150.2c-33.257 0-60.2-27.033-60.2-60.2 0-33.084 27.116-60.2 60.2-60.2s60.1 27.116 60.1 60.2c0 32.683-26.316 60.2-60.1 60.2"/>
</symbol>
<symbol id="price" viewBox="0 0 32 32"><g data-name="18-Price"><path d="M18.6 7.84a1.5 1.5 0 0 1-.6-.11 1.45 1.45 0 1 1 2-1.87 1.47 1.47 0 0 1 0 1.11 1.44 1.44 0 0 1-1.4.87"/><path d="M15.12 30.37a4.6 4.6 0 0 1-1.79-.37l-8.26-3.58a4.48 4.48 0 0 1-2.34-5.91l6-13.82a4.46 4.46 0 0 1 2.44-2.39L17.09 2a4.51 4.51 0 0 1 5.84 2.53l2.34 5.91a4.44 4.44 0 0 1-.05 3.45l-6 13.81a4.5 4.5 0 0 1-2.47 2.4 4.6 4.6 0 0 1-1.63.27M4.56 21.3a2.52 2.52 0 0 0 1.3 3.29l8.27 3.57a2.49 2.49 0 0 0 3.28-1.3l6-13.82a2.53 2.53 0 0 0 0-1.91l-2.34-5.92a2.5 2.5 0 0 0-3.24-1.4l-5.92 2.34a2.47 2.47 0 0 0-1.37 1.34z"/><path d="M20.24 29a4.2 4.2 0 0 1-1.39-.24 1 1 0 0 1 .68-1.88 2.11 2.11 0 0 0 2.65-1.15l5.32-12.35a2.16 2.16 0 0 0 0-1.62L25.44 6.5A2.12 2.12 0 0 0 23 5.21a1 1 0 0 1-.42-2 4.12 4.12 0 0 1 4.72 2.55L29.39 11a4.1 4.1 0 0 1-.06 3.15L24 26.48A4.12 4.12 0 0 1 20.24 29M17.1 12.83a2.92 2.92 0 0 1 1.2 3l-2.44-.31a1 1 0 0 0-.17-1.18 1 1 0 0 0-.37-.26 1.13 1.13 0 0 0-1 0 .52.52 0 0 0-.22.22c-.13.29 0 .61.4 1a6 6 0 0 0 .72.55 7.1 7.1 0 0 1 1.56 1.45 2.38 2.38 0 0 1 .16 2.4A2.28 2.28 0 0 1 15 21a4.7 4.7 0 0 1-1.44 0l-.31.72-2.25-1 .32-.73A3.26 3.26 0 0 1 10 17.65a2.4 2.4 0 0 1 0-.76l2.45.31a1 1 0 0 0 .25 1.2 1.6 1.6 0 0 0 .5.34 1.45 1.45 0 0 0 1.25.1.4.4 0 0 0 .2-.19c.13-.31 0-.64-.38-1l-1.1-.84A3.9 3.9 0 0 1 11.66 15a2.5 2.5 0 0 1 .16-1.75 2.37 2.37 0 0 1 1.86-1.35 5 5 0 0 1 1.15 0l.33-.75 2.24 1z"/></g>
</symbol>
<symbol id="room" viewBox="0 0 512.013 512.013"><path d="M.007 406.602V105.425a15.06 15.06 0 0 1 9.771-14.1L250.719.972c3.754-1.408 7.604-1.22 10.931.134l240.585 90.219a15.06 15.06 0 0 1 9.771 14.1v301.177c0 6.817-4.414 12.272-10.201 14.261l-240.511 90.192a15.06 15.06 0 0 1-10.575 0L10.208 420.863C4.421 418.874.007 413.418.007 406.602m421.647-44.318 60.235 22.588V191.155l-210.824-79.059v193.717l45.176 16.941V186.366c0-10.514 10.502-17.792 20.346-14.1l75.294 28.235a15.06 15.06 0 0 1 9.771 14.1v147.683zM346.36 208.096v125.952l45.176 16.941V225.037zM57.953 406.602l198.054 74.27 198.054-74.27-198.054-74.27zm182.995-294.506L30.124 191.155v193.717l210.824-79.059zm30.118-32.165L481.89 158.99v-43.129L271.066 36.802zM30.124 158.99l210.824-79.059V36.802L30.124 115.861zm30.118 149.729v-75.294a15.06 15.06 0 0 1 9.771-14.1l120.471-45.176c9.845-3.692 20.346 3.586 20.346 14.1v75.294a15.06 15.06 0 0 1-9.771 14.1L80.588 322.819c-9.844 3.692-20.346-3.585-20.346-14.1m120.471-55.612v-43.129L90.36 243.86v43.129z"/>
</symbol>
<symbol id="size" viewBox="0 0 32 32"><g data-name="Layer 2"><path d="M25.28 1H6.72A5.73 5.73 0 0 0 1 6.72v18.56A5.73 5.73 0 0 0 6.72 31h18.56A5.73 5.73 0 0 0 31 25.28V6.72A5.73 5.73 0 0 0 25.28 1M29 25.28A3.73 3.73 0 0 1 25.28 29H6.72A3.73 3.73 0 0 1 3 25.28V6.72A3.73 3.73 0 0 1 6.72 3h18.56A3.73 3.73 0 0 1 29 6.72Z"/><path d="M25 17.84a1 1 0 0 0-1 1v3.75L9.41 8h3.75a1 1 0 0 0 0-2H6.69a.69.69 0 0 0-.69.69v6.47a1 1 0 0 0 2 0V9.41L22.59 24h-3.75a1 1 0 0 0 0 2h6.47a.69.69 0 0 0 .69-.69v-6.47a1 1 0 0 0-1-1"/></g>
</symbol>
<symbol id="trophy" viewBox="0 0 511.999 511.999"><path d="M466.45 49.374a37.05 37.05 0 0 0-28.267-13.071H402.41v-11.19C402.41 11.266 391.143 0 377.297 0H134.705c-13.848 0-25.112 11.266-25.112 25.112v11.19H73.816a37.05 37.05 0 0 0-28.267 13.071c-6.992 8.221-10.014 19.019-8.289 29.624 9.4 57.8 45.775 108.863 97.4 136.872 4.717 11.341 10.059 22.083 16.008 32.091 19.002 31.975 42.625 54.073 68.627 64.76 2.635 26.644-15.094 51.885-41.794 57.9-.057.013-.097.033-.153.046-5.211 1.245-9.09 5.921-9.09 11.513v54.363h-21.986c-19.602 0-35.549 15.947-35.549 35.549v28.058c0 6.545 5.305 11.85 11.85 11.85H390.56c6.545 0 11.85-5.305 11.85-11.85v-28.058c0-19.602-15.947-35.549-35.549-35.549h-21.988V382.18c0-5.603-3.893-10.286-9.118-11.52q-.073-.02-.145-.04c-26.902-6.055-44.664-31.55-41.752-58.394 25.548-10.86 48.757-32.761 67.479-64.264 5.949-10.009 11.29-20.752 16.008-32.095 51.622-28.01 87.995-79.072 97.395-136.87 1.725-10.605-1.297-21.402-8.29-29.623M60.652 75.192c-.616-3.787.431-7.504 2.949-10.466A13.39 13.39 0 0 1 73.815 60h35.777v21.802c0 34.186 4.363 67.3 12.632 97.583-32.496-25.679-54.87-62.982-61.572-104.193m306.209 385.051c6.534 0 11.85 5.316 11.85 11.85v16.208H134.422v-16.208c0-6.534 5.316-11.85 11.85-11.85zm-45.688-66.213v42.513H191.96V394.03zm-98.136-23.699a78.5 78.5 0 0 0 8.002-10.46c7.897-12.339 12.042-26.357 12.228-40.674 4.209.573 8.457.88 12.741.88a94 94 0 0 0 13.852-1.036c.27 19.239 7.758 37.45 20.349 51.289zM378.709 81.803c0 58.379-13.406 113.089-37.747 154.049-23.192 39.03-53.364 60.525-84.956 60.525-31.597 0-61.771-21.494-84.966-60.523-24.342-40.961-37.748-95.671-37.748-154.049V25.112c0-.78.634-1.413 1.412-1.413h242.591c.78 0 1.414.634 1.414 1.413zm72.639-6.611c-6.702 41.208-29.074 78.51-61.569 104.191 8.268-30.283 12.631-63.395 12.631-97.58V60.001h35.773c3.938 0 7.66 1.723 10.214 4.726 2.518 2.961 3.566 6.678 2.951 10.465"/><path d="M327.941 121.658a11.86 11.86 0 0 0-9.566-8.064l-35.758-5.196-15.991-32.402a11.852 11.852 0 0 0-21.252 0l-15.991 32.402-35.758 5.196a11.849 11.849 0 0 0-6.567 20.213l25.875 25.221-6.109 35.613a11.848 11.848 0 0 0 17.193 12.492L256 190.32l31.982 16.813a11.843 11.843 0 0 0 12.478-.903 11.85 11.85 0 0 0 4.714-11.59l-6.109-35.613 25.875-25.221a11.85 11.85 0 0 0 3.001-12.148m-49.877 24.747a11.85 11.85 0 0 0-3.408 10.489l3.102 18.09-16.245-8.541a11.86 11.86 0 0 0-11.028 0l-16.245 8.541 3.102-18.09a11.85 11.85 0 0 0-3.408-10.489l-13.141-12.81 18.162-2.64a11.85 11.85 0 0 0 8.922-6.482L256 108.015l8.122 16.458a11.85 11.85 0 0 0 8.922 6.482l18.162 2.64z"/>
</symbol>
<symbol id="verified"><path d="m459.669 82.906-196-81.377a20 20 0 0 0-15.338 0l-196 81.377A20 20 0 0 0 40 101.377v98.925c0 136.213 82.329 258.74 208.442 310.215a20 20 0 0 0 15.116 0C389.669 459.043 472 336.516 472 200.302v-98.925a20 20 0 0 0-12.331-18.471M432 200.302c0 115.795-68 222.392-176 269.974C150.886 423.965 80 319.235 80 200.302v-85.573l176-73.074 176 73.074zm-198.106 67.414 85.964-85.963c7.81-7.81 20.473-7.811 28.284 0s7.81 20.474-.001 28.284L248.036 310.142c-7.812 7.812-20.475 7.809-28.284 0l-55.894-55.894c-7.811-7.811-7.811-20.474 0-28.284s20.474-7.811 28.284 0z"/>
</symbol>
<symbol id="world" viewBox="0 0 511.999 511.999"><path d="M437.019 74.981C388.667 26.628 324.38 0 256 0S123.332 26.628 74.981 74.98C26.628 123.332 0 187.62 0 256s26.628 132.667 74.981 181.019c48.351 48.352 112.639 74.98 181.019 74.98s132.667-26.628 181.02-74.981C485.371 388.667 512 324.379 512 255.999s-26.629-132.667-74.981-181.018M96.216 96.216c22.511-22.511 48.938-39.681 77.742-50.888-7.672 9.578-14.851 20.587-21.43 32.969-7.641 14.38-14.234 30.173-19.725 47.042-19.022-3.157-36.647-7.039-52.393-11.595a230 230 0 0 1 15.806-17.528m-33.987 43.369c18.417 5.897 39.479 10.87 62.461 14.809-6.4 27.166-10.167 56.399-11.066 86.591H30.536c2.36-36.233 13.242-70.813 31.693-101.4m-1.635 230.053c-17.455-29.899-27.769-63.481-30.059-98.623h83.146c.982 29.329 4.674 57.731 10.858 84.186-23.454 3.802-45.045 8.649-63.945 14.437m35.622 46.146a230 230 0 0 1-17.831-20.055c16.323-4.526 34.571-8.359 54.214-11.433 5.53 17.103 12.194 33.105 19.928 47.662 7.17 13.493 15.053 25.349 23.51 35.505-29.61-11.183-56.769-28.629-79.821-51.679m144.768 62.331c-22.808-6.389-44.384-27.217-61.936-60.249-6.139-11.552-11.531-24.155-16.15-37.587 24.73-2.722 51.045-4.331 78.086-4.709zm0-132.578c-29.988.409-59.217 2.292-86.59 5.507-6.038-24.961-9.671-51.978-10.668-80.028h97.259v74.521zm0-104.553h-97.315c.911-28.834 4.602-56.605 10.828-82.201 27.198 3.4 56.366 5.468 86.487 6.06zm0-106.176c-27.146-.547-53.403-2.317-77.958-5.205 4.591-13.292 9.941-25.768 16.022-37.215 17.551-33.032 39.128-53.86 61.936-60.249zm209.733 6.372c17.874 30.193 28.427 64.199 30.749 99.804h-83.088c-.889-29.844-4.584-58.749-10.85-85.647 23.133-3.736 44.456-8.489 63.189-14.157m-34.934-44.964a230 230 0 0 1 16.914 18.91c-16.073 4.389-33.972 8.114-53.204 11.112-5.548-17.208-12.243-33.305-20.02-47.941-6.579-12.382-13.758-23.391-21.43-32.969 28.802 11.207 55.23 28.377 77.74 50.888m-144.767 174.8h97.259c-1.004 28.268-4.686 55.49-10.81 80.612-27.194-3.381-56.349-5.43-86.449-6.006zm0-30.032v-76.041c30.005-.394 59.257-2.261 86.656-5.464 6.125 25.403 9.756 52.932 10.659 81.505zm-.002-208.845zc22.808 6.389 44.384 27.217 61.936 60.249 6.178 11.627 11.601 24.318 16.24 37.848-24.763 2.712-51.108 4.309-78.177 4.674zm.002 445.976V375.657c27.12.532 53.357 2.286 77.903 5.156-4.579 13.232-9.911 25.654-15.967 37.053-17.552 33.032-39.128 53.86-61.936 60.249m144.767-62.331c-23.051 23.051-50.21 40.496-79.821 51.678 8.457-10.156 16.34-22.011 23.51-35.504 7.62-14.341 14.198-30.088 19.68-46.906 19.465 3.213 37.473 7.186 53.515 11.859a230 230 0 0 1-16.884 18.873m34.823-44.775c-18.635-5.991-40-11.032-63.326-15.01 6.296-26.68 10.048-55.36 11.041-84.983h83.146c-2.328 35.678-12.918 69.753-30.861 99.993"/>
</symbol></svg>