<?xml version="1.0" standalone="no"?>
<!DOCTYPE svg PUBLIC "-//W3C//DTD SVG 20010904//EN"
 "http://www.w3.org/TR/2001/REC-SVG-20010904/DTD/svg10.dtd">
<svg version="1.0" xmlns="http://www.w3.org/2000/svg"
 width="260.000000pt" height="260.000000pt" viewBox="0 0 260.000000 260.000000"
 preserveAspectRatio="xMidYMid meet">
<metadata>
Created by potrace 1.14, written by Peter Selinger 2001-2017
</metadata>
<g transform="translate(0.000000,260.000000) scale(0.100000,-0.100000)"
fill="#000000" stroke="none">
<path d="M0 1311 c0 -627 3 -951 10 -951 6 0 10 5 10 12 0 6 3 8 6 5 4 -4 19
2 34 13 15 11 30 17 34 13 3 -3 6 -1 6 5 0 7 7 12 15 12 8 0 15 5 15 10 0 6 9
10 19 10 10 0 22 7 25 16 3 8 10 12 16 9 5 -3 10 -1 10 6 0 7 3 10 6 6 4 -3
25 6 48 21 22 16 62 39 89 52 26 14 47 28 47 31 0 4 11 10 25 13 14 4 25 11
25 16 0 6 6 10 14 10 15 0 28 -78 15 -86 -4 -2 -4 -17 1 -34 6 -20 5 -30 -3
-34 -7 -2 -8 -5 -2 -5 7 -1 9 -16 7 -36 -8 -66 1 -70 65 -34 32 18 61 37 65
43 4 6 8 7 8 3 0 -5 13 1 29 12 16 12 33 21 39 21 5 0 15 7 22 15 7 8 16 12
21 9 5 -3 9 -1 9 4 0 5 18 17 40 27 22 10 40 21 40 25 0 5 12 11 26 14 14 4
35 15 46 26 12 11 25 17 30 14 4 -3 8 0 8 5 0 15 27 14 36 -1 5 -7 3 -8 -6 -3
-9 6 -11 -2 -5 -35 6 -33 4 -41 -5 -35 -9 6 -11 4 -4 -6 4 -8 9 -30 9 -49 0
-19 5 -41 9 -49 7 -10 5 -12 -4 -6 -10 6 -11 2 -6 -19 4 -18 2 -26 -6 -26 -8
0 -5 -5 5 -11 13 -8 24 -5 45 9 15 11 37 23 50 26 12 4 22 12 22 17 0 5 6 9
14 9 8 0 21 6 28 13 7 7 31 22 53 34 90 47 110 58 113 66 2 4 9 7 17 7 7 0 18
7 25 15 7 8 16 12 21 9 5 -3 9 0 9 5 0 6 4 11 10 11 5 0 39 18 75 40 36 22 68
40 70 40 3 0 22 11 43 24 20 12 40 23 43 22 4 -1 15 6 25 14 11 9 36 25 57 35
20 11 37 24 37 29 0 5 3 6 7 3 3 -4 15 0 25 10 10 9 18 12 18 8 0 -5 9 1 21
13 11 12 24 20 30 17 5 -4 9 -1 9 5 0 6 5 8 10 5 6 -3 10 -2 10 3 0 8 55 38
55 30 0 -1 11 7 24 19 13 12 28 20 33 17 4 -3 8 0 8 5 0 6 7 11 15 11 8 0 15
5 15 12 0 6 3 8 6 5 4 -4 19 1 33 11 14 10 38 24 54 32 15 7 27 17 27 22 0 5
4 7 9 4 5 -3 14 1 21 9 7 8 16 13 20 10 4 -2 16 5 28 15 12 11 28 20 36 20 8
0 16 3 18 8 4 8 147 92 158 92 4 0 13 7 20 15 7 8 16 12 21 9 5 -3 9 -1 9 4 0
5 15 15 33 23 17 7 34 16 37 20 3 3 25 16 49 28 33 17 41 25 32 34 -7 7 -15
12 -19 12 -4 0 -18 8 -32 16 -14 9 -63 38 -110 64 -47 26 -88 53 -92 59 -4 6
-8 8 -8 3 0 -4 -10 -1 -23 8 -13 8 -27 12 -32 8 -4 -5 -5 -3 -2 3 6 10 -39 40
-55 36 -5 -1 -8 2 -8 6 0 5 -18 16 -40 26 -22 10 -40 22 -40 27 0 5 -9 9 -19
9 -11 0 -21 3 -23 8 -1 4 -28 20 -58 36 -30 16 -62 35 -71 42 -9 8 -19 11 -22
7 -4 -3 -7 -2 -7 3 0 6 -18 18 -40 28 -22 10 -40 22 -40 27 0 5 -7 9 -16 9 -8
0 -35 14 -59 30 -24 17 -48 30 -54 30 -6 0 -11 5 -11 11 0 5 -4 8 -9 4 -5 -3
-12 -1 -15 4 -4 5 -31 22 -61 37 -30 16 -55 32 -55 36 0 4 -9 8 -20 8 -11 0
-20 5 -20 10 0 6 -6 10 -14 10 -8 0 -16 3 -18 8 -1 4 -21 16 -43 28 -22 11
-96 53 -163 92 -68 40 -128 72 -133 72 -5 0 -9 3 -9 8 0 4 -10 12 -23 17 -35
17 -111 59 -117 66 -5 6 -39 21 -56 24 -7 2 -10 -23 -9 -69 1 -39 0 -75 -4
-81 -9 -17 -10 -35 0 -29 5 3 9 -2 9 -10 0 -8 -5 -18 -10 -21 -8 -5 -8 -11 0
-20 18 -22 -7 -28 -37 -8 -15 10 -31 22 -35 28 -4 5 -8 6 -8 1 0 -5 -8 -2 -18
7 -10 10 -22 14 -25 10 -4 -3 -7 -2 -7 4 0 6 -14 16 -30 23 -17 7 -30 17 -30
23 0 6 -3 8 -6 4 -4 -3 -23 5 -43 18 -19 14 -41 25 -48 25 -7 0 -13 4 -13 8 0
5 -16 14 -35 22 -19 8 -35 17 -35 22 0 4 -6 8 -12 8 -7 0 -24 9 -38 20 -34 26
-52 25 -49 -2 2 -13 0 -29 -4 -35 -5 -7 -5 -13 0 -13 8 0 8 -178 0 -186 -5 -6
-81 37 -85 48 -2 5 -7 6 -12 3 -4 -3 -13 2 -20 10 -7 8 -19 15 -26 15 -8 0
-14 3 -14 8 0 4 -15 13 -32 21 -18 8 -35 17 -38 20 -5 6 -26 17 -112 63 -21
11 -38 24 -38 30 0 5 -5 6 -10 3 -6 -4 -26 5 -45 20 l-35 26 0 -950z m160 759
c25 -13 55 -29 67 -35 13 -5 23 -13 23 -17 0 -5 7 -8 15 -8 8 0 15 -5 15 -11
0 -6 7 -9 15 -5 8 3 15 2 15 -2 0 -4 17 -16 38 -27 20 -11 39 -22 42 -25 3 -3
19 -12 35 -20 17 -8 34 -21 39 -29 11 -17 12 -83 2 -99 -4 -7 -4 -12 1 -12 9
0 7 -376 -2 -390 -4 -6 -3 -10 2 -10 10 0 8 -93 -1 -109 -4 -6 -4 -11 1 -11 4
0 6 -63 3 -140 -3 -77 -3 -140 0 -140 3 0 5 -16 5 -35 0 -19 -3 -35 -6 -35 -4
0 -3 -16 1 -35 5 -21 4 -35 -2 -35 -5 0 -6 -5 -2 -12 14 -22 7 -98 -11 -118
-10 -11 -21 -17 -25 -15 -4 3 -13 -2 -20 -10 -7 -8 -19 -15 -26 -15 -8 0 -14
-4 -14 -10 0 -5 -6 -10 -14 -10 -7 0 -19 -7 -26 -15 -7 -9 -15 -13 -18 -11 -3
3 -17 -3 -32 -14 -16 -11 -32 -20 -37 -20 -5 0 -19 -9 -31 -20 -12 -12 -22
-18 -22 -14 0 4 -9 -1 -20 -11 -11 -10 -20 -15 -20 -11 0 4 -12 -2 -26 -13
-36 -28 -42 -27 -42 13 0 19 -3 39 -6 45 -4 5 -2 12 3 16 7 3 7 15 1 29 -5 13
-7 26 -4 29 7 7 9 155 2 163 -4 3 -3 17 2 30 6 14 6 26 0 29 -5 3 -7 11 -5 18
9 24 12 113 4 145 -4 17 -3 34 2 37 4 3 4 16 -1 29 -5 13 -7 26 -4 29 7 7 9
155 2 163 -4 3 -3 17 2 30 6 14 6 26 0 29 -5 3 -7 11 -5 18 9 24 12 113 4 145
-4 17 -3 34 2 37 4 3 4 16 -1 29 -5 13 -7 26 -4 29 7 7 9 155 2 163 -4 3 -3
17 2 30 6 14 6 26 0 29 -5 3 -7 11 -4 18 9 24 10 158 2 164 -5 2 -5 10 0 16 5
7 6 21 2 32 -9 26 11 61 25 43 6 -7 30 -24 55 -38z m440 20 c14 -11 31 -20 38
-20 6 0 12 -5 12 -12 0 -6 3 -8 7 -5 3 4 13 1 22 -7 9 -7 36 -24 61 -38 25
-13 81 -45 125 -70 l80 -47 0 -83 c0 -77 -2 -83 -20 -80 -11 2 -22 7 -25 11
-3 4 -20 14 -37 22 -18 8 -33 18 -33 22 0 5 -5 5 -10 2 -5 -3 -10 -2 -10 2 0
5 -27 22 -60 38 -33 17 -60 33 -60 38 0 4 -6 7 -14 7 -7 0 -19 7 -26 15 -7 8
-16 12 -21 9 -5 -3 -9 -1 -9 4 0 4 -15 14 -33 21 l-34 13 -1 89 c-1 96 4 103
48 69z m463 8 c15 -7 27 -16 27 -20 0 -5 7 -8 15 -8 8 0 15 -5 15 -12 0 -6 3
-8 6 -5 8 8 64 -24 64 -35 0 -4 6 -8 14 -8 8 0 44 -18 80 -40 36 -22 70 -40
76 -40 5 0 10 -4 10 -9 0 -5 8 -11 18 -14 24 -8 96 -50 104 -62 5 -7 8 -7 8 0
0 6 5 2 11 -7 5 -10 16 -15 24 -12 8 4 15 2 15 -3 0 -6 21 -21 48 -34 26 -13
49 -27 52 -30 3 -3 34 -21 70 -40 36 -19 67 -37 70 -40 3 -3 12 -8 20 -12 8
-4 33 -18 55 -31 22 -14 63 -37 90 -52 28 -14 53 -32 57 -38 4 -6 8 -7 8 -2 0
5 6 4 13 -2 6 -5 29 -19 50 -31 60 -34 99 -56 155 -90 29 -17 57 -31 62 -31 6
0 10 -4 10 -9 0 -8 37 -24 53 -22 4 1 7 -6 7 -15 0 -9 6 -14 13 -11 7 2 23 -3
35 -13 20 -16 20 -19 4 -25 -9 -3 -19 -6 -21 -5 -2 1 -7 -2 -10 -7 -6 -9 -265
-161 -326 -192 -16 -8 -33 -19 -37 -25 -4 -6 -8 -7 -8 -3 0 4 -10 -1 -22 -12
-11 -11 -25 -18 -29 -15 -4 2 -12 -4 -18 -13 -6 -10 -11 -15 -11 -11 0 4 -34
-13 -76 -37 -42 -25 -79 -45 -84 -45 -5 0 -15 -6 -22 -13 -7 -7 -33 -23 -58
-36 -25 -13 -47 -27 -50 -31 -3 -4 -14 -10 -25 -12 -11 -1 -29 -11 -39 -20
-11 -10 -26 -18 -33 -18 -7 0 -13 -4 -13 -10 0 -5 -7 -10 -15 -10 -8 0 -15 -5
-15 -11 0 -5 -4 -8 -9 -4 -5 3 -16 -1 -23 -9 -22 -22 -75 -46 -83 -38 -5 4 -5
2 -1 -5 4 -8 -2 -15 -19 -19 -14 -3 -25 -9 -25 -13 0 -4 -16 -13 -35 -21 -19
-8 -35 -17 -35 -21 0 -6 -30 -17 -47 -17 -3 0 -10 -7 -15 -16 -5 -9 -13 -14
-18 -11 -4 3 -11 -2 -14 -11 -3 -8 -10 -12 -16 -9 -5 3 -10 1 -10 -4 0 -6 -4
-10 -8 -8 -5 1 -34 -15 -65 -35 -32 -20 -55 -33 -52 -27 4 5 2 9 -2 9 -5 0 -8
35 -8 77 0 73 10 107 28 96 4 -2 7 1 7 6 0 6 6 11 14 11 8 0 16 3 18 8 3 7 50
35 106 61 17 8 32 19 32 23 0 4 9 8 20 8 11 0 20 4 20 8 0 7 53 37 78 44 4 1
16 10 26 20 11 10 23 18 28 18 7 0 72 37 138 79 14 8 28 16 32 16 4 0 18 9 30
20 13 10 23 18 23 16 0 -6 41 14 57 28 10 9 22 15 26 14 4 -1 13 4 21 10 16
14 39 27 109 63 28 15 52 32 52 37 0 6 3 8 6 4 4 -3 31 9 60 28 30 19 59 35
64 35 6 0 10 5 10 11 0 5 4 8 9 4 6 -3 14 3 20 12 5 10 12 17 15 16 11 -5 41
12 43 24 2 7 -8 15 -22 19 -14 3 -25 10 -25 16 0 5 -4 7 -9 4 -5 -3 -12 1 -15
10 -4 9 -9 14 -12 11 -4 -3 -23 5 -43 18 -19 14 -41 25 -48 25 -7 0 -13 3 -13
8 0 4 -17 15 -37 24 -41 19 -95 49 -103 59 -3 3 -34 21 -70 40 -36 19 -67 36
-70 39 -5 5 -22 15 -99 58 -25 13 -58 33 -72 43 -14 10 -29 16 -33 12 -3 -3
-6 -1 -6 5 0 7 -6 12 -13 12 -7 0 -22 8 -33 18 -11 9 -26 18 -34 20 -8 2 -16
8 -18 13 -2 5 -10 9 -18 9 -8 0 -14 5 -14 12 0 6 -3 8 -7 5 -3 -4 -15 0 -25
10 -10 9 -18 12 -18 7 0 -5 -4 -4 -8 1 -8 12 -80 54 -104 62 -10 3 -18 9 -18
14 0 5 -9 9 -21 9 -11 0 -17 5 -14 10 3 6 -3 10 -14 10 -12 0 -21 5 -21 10 0
6 -7 10 -15 10 -8 0 -15 3 -16 8 -4 30 -3 172 1 172 3 0 18 -6 33 -12z m-448
-288 c28 -16 57 -33 65 -37 8 -3 17 -9 20 -12 8 -10 64 -35 73 -33 4 1 7 -2 7
-8 0 -5 16 -16 35 -24 19 -8 35 -20 35 -26 0 -6 4 -9 9 -6 5 3 25 -5 44 -18
19 -13 37 -23 39 -21 2 2 5 -9 6 -26 2 -22 -1 -28 -10 -23 -10 6 -10 4 -2 -7
12 -16 13 -541 0 -576 -4 -13 -14 -23 -22 -23 -8 0 -24 -9 -36 -20 -12 -10
-24 -17 -28 -15 -4 3 -13 -2 -20 -10 -7 -8 -17 -15 -22 -15 -5 0 -21 -9 -35
-20 -14 -11 -29 -17 -34 -14 -5 3 -9 2 -9 -3 0 -4 -25 -21 -55 -38 -30 -16
-55 -33 -55 -38 0 -4 -5 -5 -11 -2 -6 4 -16 -1 -23 -11 -7 -9 -18 -14 -23 -11
-11 7 -15 1067 -4 1067 3 -1 29 -14 56 -30z m470 1 c22 -13 46 -24 53 -24 6 0
10 -3 7 -5 -3 -3 17 -17 44 -31 27 -14 71 -38 96 -53 26 -16 51 -28 56 -28 5
0 9 -4 9 -10 0 -5 6 -10 14 -10 7 0 19 -6 26 -14 6 -8 18 -12 26 -9 9 3 14 -1
14 -12 0 -9 4 -14 9 -10 5 3 15 0 23 -7 7 -7 38 -26 68 -42 30 -16 57 -32 60
-35 3 -3 39 -24 80 -45 41 -22 77 -43 80 -47 3 -4 17 -12 30 -18 14 -6 48 -24
75 -41 28 -16 60 -34 72 -39 24 -11 39 -31 23 -31 -6 0 -9 -4 -6 -8 3 -5 0 -9
-7 -9 -15 0 -161 -84 -165 -95 -2 -5 -7 -6 -12 -3 -4 3 -13 -2 -20 -10 -7 -8
-18 -15 -25 -15 -7 0 -18 -7 -25 -15 -7 -9 -15 -14 -17 -11 -4 4 -62 -31 -89
-53 -7 -6 -15 -7 -18 -4 -3 4 -6 1 -6 -5 0 -7 -3 -11 -7 -10 -5 1 -30 -11 -58
-27 -27 -15 -87 -50 -133 -77 -45 -26 -87 -48 -92 -48 -6 0 -10 -4 -10 -10 0
-5 -6 -10 -14 -10 -8 0 -21 -6 -28 -13 -7 -7 -32 -22 -55 -34 -59 -31 -87 -47
-93 -54 -3 -3 -14 -8 -26 -11 -19 -5 -20 -1 -19 77 2 82 9 110 26 100 5 -4 9
-3 9 2 0 4 21 19 48 33 26 13 49 27 52 30 6 6 85 49 117 65 13 5 23 13 23 18
0 4 6 7 14 7 8 0 21 6 28 13 7 7 32 22 55 34 59 31 87 47 93 54 3 3 20 12 38
20 17 8 32 18 32 22 0 5 5 5 10 2 6 -3 10 -2 10 4 0 9 26 21 44 20 17 -1 24
24 11 38 -8 7 -16 13 -19 13 -3 0 -35 18 -70 39 -35 22 -67 37 -70 34 -3 -4
-6 -2 -6 4 0 5 -21 20 -46 34 -25 13 -53 29 -62 34 -43 27 -88 49 -94 47 -5
-1 -8 5 -8 14 0 8 -5 12 -11 8 -6 -3 -15 0 -20 7 -4 8 -13 15 -19 15 -5 1 -15
2 -21 3 -5 0 -8 5 -5 9 3 5 0 9 -7 9 -9 0 -124 62 -145 78 -8 6 -9 76 -1 81 5
3 6 11 2 17 -12 19 -10 75 2 73 6 -1 29 -12 50 -25z m-25 -256 c7 -8 16 -12
21 -9 5 3 9 0 9 -5 0 -6 6 -11 13 -11 7 0 24 -10 37 -22 14 -13 25 -21 27 -18
2 6 115 -61 124 -73 3 -5 10 -9 15 -9 11 -1 57 -21 64 -28 19 -19 52 -43 46
-32 -5 8 10 1 33 -14 36 -23 47 -38 27 -35 -6 1 -19 -8 -51 -37 -8 -7 -15 -10
-15 -6 0 4 -8 0 -17 -8 -10 -9 -28 -19 -40 -22 -13 -4 -23 -12 -23 -17 0 -5
-9 -9 -20 -9 -11 0 -20 -4 -20 -8 0 -5 -18 -17 -40 -27 -22 -10 -40 -22 -40
-27 0 -5 -4 -7 -9 -4 -5 3 -14 -1 -21 -9 -7 -8 -17 -15 -22 -15 -6 0 -22 -9
-38 -20 -15 -11 -30 -17 -34 -13 -3 3 -6 2 -6 -4 0 -14 -48 -34 -55 -23 -3 5
-1 11 5 15 6 4 7 12 3 18 -12 19 -10 446 2 440 5 -3 5 0 -2 7 -12 13 -7 40 7
40 4 0 13 -7 20 -15z m-115 -770 c0 -58 -3 -70 -18 -73 -9 -2 -15 -8 -11 -13
3 -5 2 -8 -3 -7 -17 4 -53 -14 -47 -24 5 -7 1 -9 -9 -5 -10 3 -17 2 -17 -3 0
-6 -6 -10 -14 -10 -8 0 -21 -6 -28 -12 -7 -7 -30 -22 -51 -32 -20 -11 -37 -23
-37 -28 0 -4 -3 -7 -7 -6 -11 3 -76 -32 -85 -46 -4 -6 -8 -7 -8 -3 0 5 -10 1
-22 -7 -12 -9 -25 -16 -29 -16 -3 0 -6 37 -7 82 0 69 3 86 19 101 10 10 19 15
19 12 0 -4 13 3 29 14 16 12 33 21 39 21 5 0 15 7 22 15 7 9 15 14 17 11 4 -4
63 31 91 54 6 6 12 8 12 5 0 -4 12 3 26 14 15 12 33 21 40 21 8 0 14 5 14 11
0 5 4 7 10 4 5 -3 15 3 22 14 12 19 12 19 23 -2 6 -12 11 -53 10 -92z"/>
</g>
</svg>
