<svg xmlns="http://www.w3.org/2000/svg" viewBox="0 0 32 32"><g data-name="18-Price"><path d="M18.6 7.84a1.5 1.5 0 0 1-.6-.11 1.45 1.45 0 1 1 2-1.87 1.47 1.47 0 0 1 0 1.11 1.44 1.44 0 0 1-1.4.87"/><path d="M15.12 30.37a4.6 4.6 0 0 1-1.79-.37l-8.26-3.58a4.48 4.48 0 0 1-2.34-5.91l6-13.82a4.46 4.46 0 0 1 2.44-2.39L17.09 2a4.51 4.51 0 0 1 5.84 2.53l2.34 5.91a4.44 4.44 0 0 1-.05 3.45l-6 13.81a4.5 4.5 0 0 1-2.47 2.4 4.6 4.6 0 0 1-1.63.27M4.56 21.3a2.52 2.52 0 0 0 1.3 3.29l8.27 3.57a2.49 2.49 0 0 0 3.28-1.3l6-13.82a2.53 2.53 0 0 0 0-1.91l-2.34-5.92a2.5 2.5 0 0 0-3.24-1.4l-5.92 2.34a2.47 2.47 0 0 0-1.37 1.34z"/><path d="M20.24 29a4.2 4.2 0 0 1-1.39-.24 1 1 0 0 1 .68-1.88 2.11 2.11 0 0 0 2.65-1.15l5.32-12.35a2.16 2.16 0 0 0 0-1.62L25.44 6.5A2.12 2.12 0 0 0 23 5.21a1 1 0 0 1-.42-2 4.12 4.12 0 0 1 4.72 2.55L29.39 11a4.1 4.1 0 0 1-.06 3.15L24 26.48A4.12 4.12 0 0 1 20.24 29M17.1 12.83a2.92 2.92 0 0 1 1.2 3l-2.44-.31a1 1 0 0 0-.17-1.18 1 1 0 0 0-.37-.26 1.13 1.13 0 0 0-1 0 .52.52 0 0 0-.22.22c-.13.29 0 .61.4 1a6 6 0 0 0 .72.55 7.1 7.1 0 0 1 1.56 1.45 2.38 2.38 0 0 1 .16 2.4A2.28 2.28 0 0 1 15 21a4.7 4.7 0 0 1-1.44 0l-.31.72-2.25-1 .32-.73A3.26 3.26 0 0 1 10 17.65a2.4 2.4 0 0 1 0-.76l2.45.31a1 1 0 0 0 .25 1.2 1.6 1.6 0 0 0 .5.34 1.45 1.45 0 0 0 1.25.1.4.4 0 0 0 .2-.19c.13-.31 0-.64-.38-1l-1.1-.84A3.9 3.9 0 0 1 11.66 15a2.5 2.5 0 0 1 .16-1.75 2.37 2.37 0 0 1 1.86-1.35 5 5 0 0 1 1.15 0l.33-.75 2.24 1z"/></g></svg>