<svg xmlns="http://www.w3.org/2000/svg" xml:space="preserve" width="512" height="512" viewBox="0 0 512.013 512.013"><path d="M.007 406.602V105.425a15.06 15.06 0 0 1 9.771-14.1L250.719.972c3.754-1.408 7.604-1.22 10.931.134l240.585 90.219a15.06 15.06 0 0 1 9.771 14.1v301.177c0 6.817-4.414 12.272-10.201 14.261l-240.511 90.192a15.06 15.06 0 0 1-10.575 0L10.208 420.863C4.421 418.874.007 413.418.007 406.602m421.647-44.318 60.235 22.588V191.155l-210.824-79.059v193.717l45.176 16.941V186.366c0-10.514 10.502-17.792 20.346-14.1l75.294 28.235a15.06 15.06 0 0 1 9.771 14.1v147.683zM346.36 208.096v125.952l45.176 16.941V225.037zM57.953 406.602l198.054 74.27 198.054-74.27-198.054-74.27zm182.995-294.506L30.124 191.155v193.717l210.824-79.059zm30.118-32.165L481.89 158.99v-43.129L271.066 36.802zM30.124 158.99l210.824-79.059V36.802L30.124 115.861zm30.118 149.729v-75.294a15.06 15.06 0 0 1 9.771-14.1l120.471-45.176c9.845-3.692 20.346 3.586 20.346 14.1v75.294a15.06 15.06 0 0 1-9.771 14.1L80.588 322.819c-9.844 3.692-20.346-3.585-20.346-14.1m120.471-55.612v-43.129L90.36 243.86v43.129z"/></svg>