<svg xmlns="http://www.w3.org/2000/svg" width="512" height="512" viewBox="0 0 32 32"><g data-name="Layer 2"><path d="M25.28 1H6.72A5.73 5.73 0 0 0 1 6.72v18.56A5.73 5.73 0 0 0 6.72 31h18.56A5.73 5.73 0 0 0 31 25.28V6.72A5.73 5.73 0 0 0 25.28 1M29 25.28A3.73 3.73 0 0 1 25.28 29H6.72A3.73 3.73 0 0 1 3 25.28V6.72A3.73 3.73 0 0 1 6.72 3h18.56A3.73 3.73 0 0 1 29 6.72Z"/><path d="M25 17.84a1 1 0 0 0-1 1v3.75L9.41 8h3.75a1 1 0 0 0 0-2H6.69a.69.69 0 0 0-.69.69v6.47a1 1 0 0 0 2 0V9.41L22.59 24h-3.75a1 1 0 0 0 0 2h6.47a.69.69 0 0 0 .69-.69v-6.47a1 1 0 0 0-1-1"/></g></svg>